<svg width="505.463318" height="520.803833" viewBox="0 0 505.463 520.804" fill="none" xmlns="http://www.w3.org/2000/svg" xmlns:xlink="http://www.w3.org/1999/xlink">
	<desc>
			Created with Pixso.
	</desc>
	<defs/>
	<rect id="Прямоугольник 9" x="0.066650" y="0.066772" width="505.329987" height="520.669983" fill="#000000" fill-opacity="1.000000"/>
	<path id="path" d="M0.06 260.4L0.06 520.73L252.73 520.73L505.39 520.73L505.39 260.4L505.39 0.06L252.73 0.06L0.06 0.06L0.06 260.4ZM222.06 132.01C222.59 132.67 222.06 134.38 220.86 135.7C219.66 137.02 218.73 138.47 218.73 139C218.73 139.52 217.26 141.89 215.39 144.27C213.53 146.64 212.06 149.28 212.06 149.94C212.06 150.73 211.13 152.05 210.06 152.97C206.33 156 208.06 156.92 218.06 156.92L228.06 156.92L228.06 148.35C228.06 143.61 228.99 137.68 229.93 135.17C231.53 131.35 232.59 130.56 235.93 130.56C241.13 130.56 241.93 132.14 239.53 137.41C238.46 139.79 236.86 144.14 236.06 147.04C235.13 149.94 233.93 152.84 233.26 153.5C230.86 156.13 232.33 156.92 239.79 156.92L247.66 156.92L249.13 151.91C249.93 149.28 250.86 143.35 251.39 138.73L252.33 130.56L258.59 130.56L264.86 130.56L266.46 136.75C267.26 140.31 268.46 146.25 268.86 149.94L269.79 156.92L277.53 156.92C284.73 156.92 286.73 156 284.46 153.89C282.99 152.31 276.33 132.01 277.13 131.22C277.53 130.82 279.53 130.56 281.53 130.56C287.13 130.56 290.73 137.68 290.73 148.49L290.73 156.92L300.86 156.92C308.46 156.92 310.59 156.53 309.93 155.21C309.26 154.42 307.26 151.25 305.26 148.35C300.46 141.24 296.06 133.33 296.06 131.88C296.06 131.09 299.39 130.56 303.39 130.56C309.93 130.56 310.86 130.95 312.99 134.12C314.33 136.23 319.13 142.29 323.66 147.83L332.06 157.85L332.33 197.26L332.73 236.67L339.13 237.07L345.39 237.46L345.39 231.66C345.39 224.02 347.26 222.57 356.99 223.09L364.73 223.49L365.13 230.48L365.53 237.46L371.79 237.07C377.79 236.67 378.06 236.54 377.66 232.98C377.26 230.08 378.33 228.23 382.06 224.68C387.53 219.53 389.39 219.27 394.46 222.43C399.39 225.6 400.06 226.65 400.06 232.32C400.06 237.86 396.19 242.6 391.53 242.73C389.93 242.73 380.06 242.87 369.39 243L350.06 243.26L349.66 276.48L349.39 309.83L358.73 309.83C367.13 309.83 368.06 310.09 368.06 312.46C368.06 313.91 367.66 315.1 367.13 315.1C362.86 315.36 254.86 315.5 207.79 315.36C150.73 315.1 149.39 315.1 149.39 312.46C149.39 310.22 150.46 309.96 159.13 309.56L168.73 309.17L168.73 276.22L168.73 243.26L145.66 242.6C123.26 241.94 122.46 241.81 119.93 238.78C116.06 234.03 116.73 228.5 121.53 224.02C123.79 221.91 126.73 220.19 128.19 220.19C132.33 220.19 139.79 227.71 140.33 232.45C140.73 236.41 141.13 236.67 146.46 237.07L152.06 237.46L152.06 231C152.06 223.49 152.99 222.83 162.46 222.83C170.73 222.83 171.79 223.75 172.33 230.74L172.73 236.67L179.13 237.07L185.39 237.46L185.39 197.92L185.39 158.37L196.46 144.53L207.39 130.69L214.33 130.69C218.06 130.56 221.66 131.22 222.06 132.01ZM168.59 204.51C175.39 209.78 171.39 220.19 162.46 220.19C157.53 220.19 152.06 215.71 152.06 211.76C152.06 207.93 158.19 201.74 161.93 201.74C163.66 201.74 166.59 202.93 168.59 204.51ZM362.06 204.64C365.26 207.01 365.66 208.07 364.99 212.55C364.06 219.01 364.19 218.88 357.39 219.8C352.99 220.46 351.39 220.06 348.73 217.56C344.33 213.47 344.59 210.31 349.26 205.56C353.93 200.95 357.13 200.82 362.06 204.64ZM167.39 357.68C174.59 361.63 182.19 372.04 183.39 379.29C185.39 392.74 179.79 403.42 166.73 411.19C159.93 415.15 147.39 415.02 138.99 410.8C131.66 407.11 130.99 406.45 126.19 397.88C122.19 390.76 121.39 378.64 124.73 373.1C125.79 371.25 126.99 368.88 127.53 367.83C129.79 363.08 139.53 356.36 146.73 354.38C151.93 353.06 161.53 354.65 167.39 357.68ZM379.13 358.2C383.53 360.58 387.53 364 390.06 367.83C393.66 373.23 394.06 374.68 394.06 384.44C394.06 393.79 393.66 395.64 390.33 400.52C384.86 408.82 377.39 413.04 367.39 413.7C362.73 413.96 356.86 413.57 354.19 412.64C347.13 410.4 338.86 401.97 335.93 393.93C333.26 386.54 332.59 379.03 334.59 377.84C335.13 377.45 336.06 375.34 336.46 373.23C337.93 365.85 346.33 358.73 358.73 354.12C362.59 352.67 372.46 354.65 379.13 358.2ZM239.66 356.75C240.86 360.05 238.86 363.08 213.26 396.83L207.79 404.08L223.66 404.74L239.39 405.39L239.79 409.61L240.19 413.96L217.53 413.96L194.73 413.96L194.73 409.48C194.73 406.05 196.19 403.15 200.73 397.75C204.06 393.66 206.73 390.1 206.73 389.71C206.73 389.31 210.99 383.51 216.19 376.79L225.66 364.53L210.19 364.14L194.73 363.74L194.73 359.26L194.73 354.65L216.73 354.65C235.53 354.65 238.99 354.91 239.66 356.75ZM265.13 384.7L265.39 414.09L260.46 413.7L255.39 413.3L254.99 385.62C254.86 370.46 254.99 357.15 255.39 356.23C255.79 355.17 257.66 354.65 260.33 354.91L264.73 355.3L265.13 384.7ZM325.13 359.52L325.53 363.87L316.19 363.87L306.73 363.87L306.46 388.52L306.06 413.3L301.79 413.7L297.39 414.09L297.39 389.05L297.39 363.87L288.73 363.87L280.06 363.87L280.06 359.26L280.06 354.65L302.46 354.91L324.73 355.3L325.13 359.52Z" fill="#FFFFFF" fill-opacity="1.000000" fill-rule="nonzero"/>
	<path id="path" d="M0.06 520.73L252.73 520.73L505.39 520.73L505.39 260.4L505.39 0.06L252.73 0.06L0.06 0.06L0.06 260.4L0.06 520.73ZM220.86 135.7C219.66 137.02 218.73 138.47 218.73 139C218.73 139.52 217.26 141.89 215.39 144.27C213.53 146.64 212.06 149.28 212.06 149.94C212.06 150.73 211.13 152.05 210.06 152.97C206.33 156 208.06 156.92 218.06 156.92L228.06 156.92L228.06 148.35C228.06 143.61 228.99 137.68 229.93 135.17C231.53 131.35 232.59 130.56 235.93 130.56C241.13 130.56 241.93 132.14 239.53 137.41C238.46 139.79 236.86 144.14 236.06 147.04C235.13 149.94 233.93 152.84 233.26 153.5C230.86 156.13 232.33 156.92 239.79 156.92L247.66 156.92L249.13 151.91C249.93 149.28 250.86 143.35 251.39 138.73L252.33 130.56L258.59 130.56L264.86 130.56L266.46 136.75C267.26 140.31 268.46 146.25 268.86 149.94L269.79 156.92L277.53 156.92C284.73 156.92 286.73 156 284.46 153.89C282.99 152.31 276.33 132.01 277.13 131.22C277.53 130.82 279.53 130.56 281.53 130.56C287.13 130.56 290.73 137.68 290.73 148.49L290.73 156.92L300.86 156.92C308.46 156.92 310.59 156.53 309.93 155.21C309.26 154.42 307.26 151.25 305.26 148.35C300.46 141.24 296.06 133.33 296.06 131.88C296.06 131.09 299.39 130.56 303.39 130.56C309.93 130.56 310.86 130.95 312.99 134.12C314.33 136.23 319.13 142.29 323.66 147.83L332.06 157.85L332.33 197.26L332.73 236.67L339.13 237.07L345.39 237.46L345.39 231.66C345.39 224.02 347.26 222.57 356.99 223.09L364.73 223.49L365.13 230.48L365.53 237.46L371.79 237.07C377.79 236.67 378.06 236.54 377.66 232.98C377.26 230.08 378.33 228.23 382.06 224.68C387.53 219.53 389.39 219.27 394.46 222.43C399.39 225.6 400.06 226.65 400.06 232.32C400.06 237.86 396.19 242.6 391.53 242.73C389.93 242.73 380.06 242.87 369.39 243L350.06 243.26L349.66 276.48L349.39 309.83L358.73 309.83C367.13 309.83 368.06 310.09 368.06 312.46C368.06 313.91 367.66 315.1 367.13 315.1C362.86 315.36 254.86 315.5 207.79 315.36C150.73 315.1 149.39 315.1 149.39 312.46C149.39 310.22 150.46 309.96 159.13 309.56L168.73 309.17L168.73 276.22L168.73 243.26L145.66 242.6C123.26 241.94 122.46 241.81 119.93 238.78C116.06 234.03 116.73 228.5 121.53 224.02C123.79 221.91 126.73 220.19 128.19 220.19C132.33 220.19 139.79 227.71 140.33 232.45C140.73 236.41 141.13 236.67 146.46 237.07L152.06 237.46L152.06 231C152.06 223.49 152.99 222.83 162.46 222.83C170.73 222.83 171.79 223.75 172.33 230.74L172.73 236.67L179.13 237.07L185.39 237.46L185.39 197.92L185.39 158.37L196.46 144.53L207.39 130.69L214.33 130.69C218.06 130.56 221.66 131.22 222.06 132.01C222.59 132.67 222.06 134.38 220.86 135.7ZM162.46 220.19C157.53 220.19 152.06 215.71 152.06 211.76C152.06 207.93 158.19 201.74 161.93 201.74C163.66 201.74 166.59 202.93 168.59 204.51C175.39 209.78 171.39 220.19 162.46 220.19ZM364.99 212.55C364.06 219.01 364.19 218.88 357.39 219.8C352.99 220.46 351.39 220.06 348.73 217.56C344.33 213.47 344.59 210.31 349.26 205.56C353.93 200.95 357.13 200.82 362.06 204.64C365.26 207.01 365.66 208.07 364.99 212.55ZM183.39 379.29C185.39 392.74 179.79 403.42 166.73 411.19C159.93 415.15 147.39 415.02 138.99 410.8C131.66 407.11 130.99 406.45 126.19 397.88C122.19 390.76 121.39 378.64 124.73 373.1C125.79 371.25 126.99 368.88 127.53 367.83C129.79 363.08 139.53 356.36 146.73 354.38C151.93 353.06 161.53 354.65 167.39 357.68C174.59 361.63 182.19 372.04 183.39 379.29ZM390.06 367.83C393.66 373.23 394.06 374.68 394.06 384.44C394.06 393.79 393.66 395.64 390.33 400.52C384.86 408.82 377.39 413.04 367.39 413.7C362.73 413.96 356.86 413.57 354.19 412.64C347.13 410.4 338.86 401.97 335.93 393.93C333.26 386.54 332.59 379.03 334.59 377.84C335.13 377.45 336.06 375.34 336.46 373.23C337.93 365.85 346.33 358.73 358.73 354.12C362.59 352.67 372.46 354.65 379.13 358.2C383.53 360.58 387.53 364 390.06 367.83ZM213.26 396.83L207.79 404.08L223.66 404.74L239.39 405.39L239.79 409.61L240.19 413.96L217.53 413.96L194.73 413.96L194.73 409.48C194.73 406.05 196.19 403.15 200.73 397.75C204.06 393.66 206.73 390.1 206.73 389.71C206.73 389.31 210.99 383.51 216.19 376.79L225.66 364.53L210.19 364.14L194.73 363.74L194.73 359.26L194.73 354.65L216.73 354.65C235.53 354.65 238.99 354.91 239.66 356.75C240.86 360.05 238.86 363.08 213.26 396.83ZM265.39 414.09L260.46 413.7L255.39 413.3L254.99 385.62C254.86 370.46 254.99 357.15 255.39 356.23C255.79 355.17 257.66 354.65 260.33 354.91L264.73 355.3L265.13 384.7L265.39 414.09ZM325.53 363.87L316.19 363.87L306.73 363.87L306.46 388.52L306.06 413.3L301.79 413.7L297.39 414.09L297.39 389.05L297.39 363.87L288.73 363.87L280.06 363.87L280.06 359.26L280.06 354.65L302.46 354.91L324.73 355.3L325.13 359.52L325.53 363.87Z" stroke="#000000" stroke-opacity="1.000000" stroke-width="0.133333"/>
	<path id="path" d="M0.06 520.73L252.73 520.73L505.39 520.73L505.39 260.4L505.39 0.06L252.73 0.06L0.06 0.06L0.06 260.4L0.06 520.73ZM220.86 135.7C219.66 137.02 218.73 138.47 218.73 139C218.73 139.52 217.26 141.89 215.39 144.27C213.53 146.64 212.06 149.28 212.06 149.94C212.06 150.73 211.13 152.05 210.06 152.97C206.33 156 208.06 156.92 218.06 156.92L228.06 156.92L228.06 148.35C228.06 143.61 228.99 137.68 229.93 135.17C231.53 131.35 232.59 130.56 235.93 130.56C241.13 130.56 241.93 132.14 239.53 137.41C238.46 139.79 236.86 144.14 236.06 147.04C235.13 149.94 233.93 152.84 233.26 153.5C230.86 156.13 232.33 156.92 239.79 156.92L247.66 156.92L249.13 151.91C249.93 149.28 250.86 143.35 251.39 138.73L252.33 130.56L258.59 130.56L264.86 130.56L266.46 136.75C267.26 140.31 268.46 146.25 268.86 149.94L269.79 156.92L277.53 156.92C284.73 156.92 286.73 156 284.46 153.89C282.99 152.31 276.33 132.01 277.13 131.22C277.53 130.82 279.53 130.56 281.53 130.56C287.13 130.56 290.73 137.68 290.73 148.49L290.73 156.92L300.86 156.92C308.46 156.92 310.59 156.53 309.93 155.21C309.26 154.42 307.26 151.25 305.26 148.35C300.46 141.24 296.06 133.33 296.06 131.88C296.06 131.09 299.39 130.56 303.39 130.56C309.93 130.56 310.86 130.95 312.99 134.12C314.33 136.23 319.13 142.29 323.66 147.83L332.06 157.85L332.33 197.26L332.73 236.67L339.13 237.07L345.39 237.46L345.39 231.66C345.39 224.02 347.26 222.57 356.99 223.09L364.73 223.49L365.13 230.48L365.53 237.46L371.79 237.07C377.79 236.67 378.06 236.54 377.66 232.98C377.26 230.08 378.33 228.23 382.06 224.68C387.53 219.53 389.39 219.27 394.46 222.43C399.39 225.6 400.06 226.65 400.06 232.32C400.06 237.86 396.19 242.6 391.53 242.73C389.93 242.73 380.06 242.87 369.39 243L350.06 243.26L349.66 276.48L349.39 309.83L358.73 309.83C367.13 309.83 368.06 310.09 368.06 312.46C368.06 313.91 367.66 315.1 367.13 315.1C362.86 315.36 254.86 315.5 207.79 315.36C150.73 315.1 149.39 315.1 149.39 312.46C149.39 310.22 150.46 309.96 159.13 309.56L168.73 309.17L168.73 276.22L168.73 243.26L145.66 242.6C123.26 241.94 122.46 241.81 119.93 238.78C116.06 234.03 116.73 228.5 121.53 224.02C123.79 221.91 126.73 220.19 128.19 220.19C132.33 220.19 139.79 227.71 140.33 232.45C140.73 236.41 141.13 236.67 146.46 237.07L152.06 237.46L152.06 231C152.06 223.49 152.99 222.83 162.46 222.83C170.73 222.83 171.79 223.75 172.33 230.74L172.73 236.67L179.13 237.07L185.39 237.46L185.39 197.92L185.39 158.37L196.46 144.53L207.39 130.69L214.33 130.69C218.06 130.56 221.66 131.22 222.06 132.01C222.59 132.67 222.06 134.38 220.86 135.7ZM162.46 220.19C157.53 220.19 152.06 215.71 152.06 211.76C152.06 207.93 158.19 201.74 161.93 201.74C163.66 201.74 166.59 202.93 168.59 204.51C175.39 209.78 171.39 220.19 162.46 220.19ZM364.99 212.55C364.06 219.01 364.19 218.88 357.39 219.8C352.99 220.46 351.39 220.06 348.73 217.56C344.33 213.47 344.59 210.31 349.26 205.56C353.93 200.95 357.13 200.82 362.06 204.64C365.26 207.01 365.66 208.07 364.99 212.55ZM183.39 379.29C185.39 392.74 179.79 403.42 166.73 411.19C159.93 415.15 147.39 415.02 138.99 410.8C131.66 407.11 130.99 406.45 126.19 397.88C122.19 390.76 121.39 378.64 124.73 373.1C125.79 371.25 126.99 368.88 127.53 367.83C129.79 363.08 139.53 356.36 146.73 354.38C151.93 353.06 161.53 354.65 167.39 357.68C174.59 361.63 182.19 372.04 183.39 379.29ZM390.06 367.83C393.66 373.23 394.06 374.68 394.06 384.44C394.06 393.79 393.66 395.64 390.33 400.52C384.86 408.82 377.39 413.04 367.39 413.7C362.73 413.96 356.86 413.57 354.19 412.64C347.13 410.4 338.86 401.97 335.93 393.93C333.26 386.54 332.59 379.03 334.59 377.84C335.13 377.45 336.06 375.34 336.46 373.23C337.93 365.85 346.33 358.73 358.73 354.12C362.59 352.67 372.46 354.65 379.13 358.2C383.53 360.58 387.53 364 390.06 367.83ZM213.26 396.83L207.79 404.08L223.66 404.74L239.39 405.39L239.79 409.61L240.19 413.96L217.53 413.96L194.73 413.96L194.73 409.48C194.73 406.05 196.19 403.15 200.73 397.75C204.06 393.66 206.73 390.1 206.73 389.71C206.73 389.31 210.99 383.51 216.19 376.79L225.66 364.53L210.19 364.14L194.73 363.74L194.73 359.26L194.73 354.65L216.73 354.65C235.53 354.65 238.99 354.91 239.66 356.75C240.86 360.05 238.86 363.08 213.26 396.83ZM265.39 414.09L260.46 413.7L255.39 413.3L254.99 385.62C254.86 370.46 254.99 357.15 255.39 356.23C255.79 355.17 257.66 354.65 260.33 354.91L264.73 355.3L265.13 384.7L265.39 414.09ZM325.53 363.87L316.19 363.87L306.73 363.87L306.46 388.52L306.06 413.3L301.79 413.7L297.39 414.09L297.39 389.05L297.39 363.87L288.73 363.87L280.06 363.87L280.06 359.26L280.06 354.65L302.46 354.91L324.73 355.3L325.13 359.52L325.53 363.87Z" stroke="#000000" stroke-opacity="1.000000" stroke-width="0.133333"/>
	<path id="path" d="M205.18 169.23C203.31 171.47 201.45 172.26 197.45 172.26L192.25 172.26L192.51 204.16L192.91 236.19L199.58 236.19L206.25 236.19L207.05 224.85C207.45 218.66 208.25 212.86 208.78 211.93C209.31 211.14 211.71 209.56 213.98 208.64C216.38 207.58 217.31 206.66 216.11 206.66C212.38 206.4 208.25 200.73 208.25 195.72C208.25 185.31 221.45 179.9 228.91 187.42C233.58 191.9 233.45 199.81 228.91 204.02C224.78 207.98 224.78 208.37 228.91 210.22C231.45 211.41 232.25 212.72 232.25 216.02C232.38 221.16 234.38 224.19 238.65 225.51C241.85 226.57 244.51 230.52 243.98 233.42C243.71 234.47 244.25 235.53 244.91 235.79C245.71 236.06 246.51 232.5 246.91 227.88C247.31 222.61 248.25 219.18 249.58 218.39C250.65 217.73 255.31 217.07 259.85 217.07C269.58 217.07 270.91 218.39 270.91 228.81C270.91 233.68 271.45 235.53 272.78 235.53C273.98 235.53 274.38 234.61 273.98 232.89C273.18 229.73 276.91 224.98 280.25 224.98C282.91 224.98 285.31 220.63 285.85 215.1C286.11 212.46 287.31 210.75 289.31 209.82C293.05 208.24 293.05 207.72 288.91 203.89C284.51 199.81 284.38 192.29 288.65 187.28C292.91 182.41 302.25 182.41 306.65 187.42C311.18 192.69 310.65 200.07 305.58 204.42L301.58 207.72L305.18 209.43C308.78 211.14 308.91 211.54 309.58 223.67L310.25 236.19L317.58 236.19L324.91 236.19L325.31 204.42L325.58 172.78L320.78 172.65C317.98 172.52 314.78 171.47 313.05 169.75C309.98 166.98 309.98 166.98 307.58 169.62C306.25 171.07 304.11 172.52 302.78 172.92C300.11 173.84 292.25 170.28 292.25 168.3C292.25 166.06 289.45 166.85 285.31 170.28C280.78 174.1 277.58 173.71 272.51 169.09L269.45 166.33L266.91 169.62C263.71 173.84 255.58 174.1 252.25 169.88C249.31 166.33 248.65 166.33 245.85 169.62C242.11 173.97 237.18 174.23 232.65 170.41C227.71 166.33 226.11 166.19 225.18 169.62C224.11 173.71 213.31 173.44 209.98 169.23L207.58 166.06L205.18 169.23ZM266.91 197.96C271.31 202.57 271.05 208.64 266.38 212.72C261.98 216.42 257.18 216.55 252.11 212.99C249.05 210.88 248.25 209.3 248.25 205.47C248.25 195.46 259.98 190.71 266.91 197.96Z" fill="#FFFFFF" fill-opacity="1.000000" fill-rule="nonzero"/>
	<path id="path" d="M197.45 172.26L192.25 172.26L192.51 204.16L192.91 236.19L199.58 236.19L206.25 236.19L207.05 224.85C207.45 218.66 208.25 212.86 208.78 211.93C209.31 211.14 211.71 209.56 213.98 208.64C216.38 207.58 217.31 206.66 216.11 206.66C212.38 206.4 208.25 200.73 208.25 195.72C208.25 185.31 221.45 179.9 228.91 187.42C233.58 191.9 233.45 199.81 228.91 204.02C224.78 207.98 224.78 208.37 228.91 210.22C231.45 211.41 232.25 212.72 232.25 216.02C232.38 221.16 234.38 224.19 238.65 225.51C241.85 226.57 244.51 230.52 243.98 233.42C243.71 234.47 244.25 235.53 244.91 235.79C245.71 236.06 246.51 232.5 246.91 227.88C247.31 222.61 248.25 219.18 249.58 218.39C250.65 217.73 255.31 217.07 259.85 217.07C269.58 217.07 270.91 218.39 270.91 228.81C270.91 233.68 271.45 235.53 272.78 235.53C273.98 235.53 274.38 234.61 273.98 232.89C273.18 229.73 276.91 224.98 280.25 224.98C282.91 224.98 285.31 220.63 285.85 215.1C286.11 212.46 287.31 210.75 289.31 209.82C293.05 208.24 293.05 207.72 288.91 203.89C284.51 199.81 284.38 192.29 288.65 187.28C292.91 182.41 302.25 182.41 306.65 187.42C311.18 192.69 310.65 200.07 305.58 204.42L301.58 207.72L305.18 209.43C308.78 211.14 308.91 211.54 309.58 223.67L310.25 236.19L317.58 236.19L324.91 236.19L325.31 204.42L325.58 172.78L320.78 172.65C317.98 172.52 314.78 171.47 313.05 169.75C309.98 166.98 309.98 166.98 307.58 169.62C306.25 171.07 304.11 172.52 302.78 172.92C300.11 173.84 292.25 170.28 292.25 168.3C292.25 166.06 289.45 166.85 285.31 170.28C280.78 174.1 277.58 173.71 272.51 169.09L269.45 166.33L266.91 169.62C263.71 173.84 255.58 174.1 252.25 169.88C249.31 166.33 248.65 166.33 245.85 169.62C242.11 173.97 237.18 174.23 232.65 170.41C227.71 166.33 226.11 166.19 225.18 169.62C224.11 173.71 213.31 173.44 209.98 169.23L207.58 166.06L205.18 169.23C203.31 171.47 201.45 172.26 197.45 172.26ZM266.38 212.72C261.98 216.42 257.18 216.55 252.11 212.99C249.05 210.88 248.25 209.3 248.25 205.47C248.25 195.46 259.98 190.71 266.91 197.96C271.31 202.57 271.05 208.64 266.38 212.72Z" stroke="#000000" stroke-opacity="1.000000" stroke-width="0.133333"/>
	<path id="path" d="M252.78 203.5C251.98 206.13 252.51 207.58 254.91 209.43C259.05 212.72 263.18 211.93 264.78 207.72C266.78 202.18 265.05 199.94 259.05 199.94C254.25 199.94 253.58 200.33 252.78 203.5Z" fill="#FFFFFF" fill-opacity="1.000000" fill-rule="nonzero"/>
	<path id="path" d="M254.91 209.43C259.05 212.72 263.18 211.93 264.78 207.72C266.78 202.18 265.05 199.94 259.05 199.94C254.25 199.94 253.58 200.33 252.78 203.5C251.98 206.13 252.51 207.58 254.91 209.43Z" stroke="#000000" stroke-opacity="1.000000" stroke-width="0.133333"/>
	<path id="path" d="M216.65 189.39C212.65 190.98 212.25 199.15 216.11 201.26C219.98 203.23 223.58 202.84 225.98 200.2C229.05 196.78 228.78 192.56 225.31 190.18C221.98 187.81 220.91 187.68 216.65 189.39Z" fill="#FFFFFF" fill-opacity="1.000000" fill-rule="nonzero"/>
	<path id="path" d="M216.11 201.26C219.98 203.23 223.58 202.84 225.98 200.2C229.05 196.78 228.78 192.56 225.31 190.18C221.98 187.81 220.91 187.68 216.65 189.39C212.65 190.98 212.25 199.15 216.11 201.26Z" stroke="#000000" stroke-opacity="1.000000" stroke-width="0.133333"/>
	<path id="path" d="M293.85 189.53C291.31 190.45 290.78 191.5 291.18 195.46C291.71 201.52 294.65 203.63 299.85 201.78C302.91 200.73 303.71 199.68 303.98 195.59C304.38 191.37 303.98 190.58 300.91 189.39C299.05 188.6 297.31 188.08 297.18 188.21C297.05 188.21 295.58 188.73 293.85 189.53Z" fill="#FFFFFF" fill-opacity="1.000000" fill-rule="nonzero"/>
	<path id="path" d="M291.18 195.46C291.71 201.52 294.65 203.63 299.85 201.78C302.91 200.73 303.71 199.68 303.98 195.59C304.38 191.37 303.98 190.58 300.91 189.39C299.05 188.6 297.31 188.08 297.18 188.21C297.05 188.21 295.58 188.73 293.85 189.53C291.31 190.45 290.78 191.5 291.18 195.46Z" stroke="#000000" stroke-opacity="1.000000" stroke-width="0.133333"/>
	<path id="path" d="M125.18 227.36C122.25 230.65 122.38 233.82 125.45 235.53C129.05 237.37 130.38 237.24 132.78 234.74C135.58 231.97 135.45 230.92 131.98 227.62C128.38 224.32 127.85 224.32 125.18 227.36Z" fill="#FFFFFF" fill-opacity="1.000000" fill-rule="nonzero"/>
	<path id="path" d="M125.45 235.53C129.05 237.37 130.38 237.24 132.78 234.74C135.58 231.97 135.45 230.92 131.98 227.62C128.38 224.32 127.85 224.32 125.18 227.36C122.25 230.65 122.38 233.82 125.45 235.53Z" stroke="#000000" stroke-opacity="1.000000" stroke-width="0.133333"/>
	<path id="path" d="M386.78 226.83C382.51 229.99 382.65 233.02 387.31 236.72C389.31 238.3 389.98 238.17 392.25 236.19C395.71 233.02 395.58 229.73 391.85 227.22C389.58 225.77 388.38 225.64 386.78 226.83Z" fill="#FFFFFF" fill-opacity="1.000000" fill-rule="nonzero"/>
	<path id="path" d="M387.31 236.72C389.31 238.3 389.98 238.17 392.25 236.19C395.71 233.02 395.58 229.73 391.85 227.22C389.58 225.77 388.38 225.64 386.78 226.83C382.51 229.99 382.65 233.02 387.31 236.72Z" stroke="#000000" stroke-opacity="1.000000" stroke-width="0.133333"/>
	<path id="path" d="M176.65 243.04C175.31 243.44 174.91 251.35 174.91 275.73C174.91 304.2 175.18 307.9 177.05 308.55C178.25 309.08 180.38 309.08 181.71 308.69C183.98 307.9 184.25 306.45 184.25 296.16C184.25 289.71 184.65 283.64 185.05 282.46C185.71 280.74 188.25 280.35 199.05 280.35L212.25 280.35L212.25 275.07C212.25 269.14 211.18 268.61 207.58 272.44C205.85 274.41 203.45 275.07 198.78 275.07C193.45 275.07 191.98 274.55 189.05 270.99C184.38 265.58 184.51 260.44 189.45 255.04C192.91 251.21 194.11 250.69 199.45 250.82C203.85 250.95 206.51 251.74 208.78 253.85C211.98 256.88 214.91 266.77 214.91 274.81C214.91 278.24 215.71 280.21 217.58 281.27C219.85 282.72 220.25 284.7 220.51 295.77C220.91 308.55 220.91 308.69 224.25 308.69C226.51 308.69 227.71 307.9 227.98 306.05C228.91 301.17 231.05 300.12 239.45 300.12C248.25 300.12 251.71 301.7 252.51 306.05C253.31 310.79 266.91 310.4 266.91 305.65C266.91 301.57 269.85 300.12 278.25 300.12C286.51 300.12 290.91 302.36 290.91 306.45C290.91 307.37 292.38 308.03 294.25 308.03C297.58 308.03 297.58 307.9 297.58 296.43C297.58 286.41 297.98 284.43 300.25 282.32C302.11 280.74 302.91 278.24 302.91 274.55C302.91 267.69 305.45 259.52 309.05 254.64C311.58 251.35 312.78 250.82 318.91 250.82C325.05 250.82 326.38 251.35 329.05 254.77C333.31 259.91 333.18 265.85 328.78 270.99C325.85 274.41 324.38 275.07 319.45 275.07C315.31 275.07 312.78 274.28 310.78 272.31C307.45 269.01 307.05 269.41 305.98 275.6L305.18 280.35L317.31 280.35C323.98 280.35 330.25 280.74 331.45 281.14C333.18 281.8 333.58 284.3 333.58 294.98C333.58 307.9 333.58 308.03 337.05 308.82C338.91 309.35 341.05 309.08 341.71 308.42C342.38 307.76 342.78 293.92 342.65 274.94L342.25 242.78L260.25 242.52C215.18 242.38 177.45 242.65 176.65 243.04ZM248.11 278.9C253.31 283.64 253.45 287.99 248.65 293.53C245.31 297.48 244.65 297.75 238.65 297.22C230.65 296.43 229.45 295.37 228.65 287.86C227.98 282.59 228.38 281.4 231.58 278.5C236.65 273.76 242.78 273.89 248.11 278.9ZM287.18 278.63C295.05 286.01 289.85 297.48 278.51 297.48C272.51 297.48 270.25 295.9 267.05 289.97C265.98 287.86 265.98 286.15 267.18 283.38C270.91 274.55 280.51 272.31 287.18 278.63Z" fill="#FFFFFF" fill-opacity="1.000000" fill-rule="nonzero"/>
	<path id="path" d="M174.91 275.73C174.91 304.2 175.18 307.9 177.05 308.55C178.25 309.08 180.38 309.08 181.71 308.69C183.98 307.9 184.25 306.45 184.25 296.16C184.25 289.71 184.65 283.64 185.05 282.46C185.71 280.74 188.25 280.35 199.05 280.35L212.25 280.35L212.25 275.07C212.25 269.14 211.18 268.61 207.58 272.44C205.85 274.41 203.45 275.07 198.78 275.07C193.45 275.07 191.98 274.55 189.05 270.99C184.38 265.58 184.51 260.44 189.45 255.04C192.91 251.21 194.11 250.69 199.45 250.82C203.85 250.95 206.51 251.74 208.78 253.85C211.98 256.88 214.91 266.77 214.91 274.81C214.91 278.24 215.71 280.21 217.58 281.27C219.85 282.72 220.25 284.7 220.51 295.77C220.91 308.55 220.91 308.69 224.25 308.69C226.51 308.69 227.71 307.9 227.98 306.05C228.91 301.17 231.05 300.12 239.45 300.12C248.25 300.12 251.71 301.7 252.51 306.05C253.31 310.79 266.91 310.4 266.91 305.65C266.91 301.57 269.85 300.12 278.25 300.12C286.51 300.12 290.91 302.36 290.91 306.45C290.91 307.37 292.38 308.03 294.25 308.03C297.58 308.03 297.58 307.9 297.58 296.43C297.58 286.41 297.98 284.43 300.25 282.32C302.11 280.74 302.91 278.24 302.91 274.55C302.91 267.69 305.45 259.52 309.05 254.64C311.58 251.35 312.78 250.82 318.91 250.82C325.05 250.82 326.38 251.35 329.05 254.77C333.31 259.91 333.18 265.85 328.78 270.99C325.85 274.41 324.38 275.07 319.45 275.07C315.31 275.07 312.78 274.28 310.78 272.31C307.45 269.01 307.05 269.41 305.98 275.6L305.18 280.35L317.31 280.35C323.98 280.35 330.25 280.74 331.45 281.14C333.18 281.8 333.58 284.3 333.58 294.98C333.58 307.9 333.58 308.03 337.05 308.82C338.91 309.35 341.05 309.08 341.71 308.42C342.38 307.76 342.78 293.92 342.65 274.94L342.25 242.78L260.25 242.52C215.18 242.38 177.45 242.65 176.65 243.04C175.31 243.44 174.91 251.35 174.91 275.73ZM248.65 293.53C245.31 297.48 244.65 297.75 238.65 297.22C230.65 296.43 229.45 295.37 228.65 287.86C227.98 282.59 228.38 281.4 231.58 278.5C236.65 273.76 242.78 273.89 248.11 278.9C253.31 283.64 253.45 287.99 248.65 293.53ZM278.51 297.48C272.51 297.48 270.25 295.9 267.05 289.97C265.98 287.86 265.98 286.15 267.18 283.38C270.91 274.55 280.51 272.31 287.18 278.63C295.05 286.01 289.85 297.48 278.51 297.48Z" stroke="#000000" stroke-opacity="1.000000" stroke-width="0.133333"/>
	<path id="path" d="M235.18 281.14C230.91 284.04 231.31 289.05 236.25 291.55C241.71 294.32 246.91 291.95 246.91 286.81C246.91 283.25 242.91 279.03 239.58 279.03C238.78 279.03 236.78 279.95 235.18 281.14Z" fill="#FFFFFF" fill-opacity="1.000000" fill-rule="nonzero"/>
	<path id="path" d="M236.25 291.55C241.71 294.32 246.91 291.95 246.91 286.81C246.91 283.25 242.91 279.03 239.58 279.03C238.78 279.03 236.78 279.95 235.18 281.14C230.91 284.04 231.31 289.05 236.25 291.55Z" stroke="#000000" stroke-opacity="1.000000" stroke-width="0.133333"/>
	<path id="path" d="M273.58 281.66C269.85 285.35 270.25 289.18 274.65 291.29C280.11 294.06 284.78 292.34 285.31 287.33C285.58 284.3 284.91 282.72 282.65 281.14C278.65 278.37 276.78 278.5 273.58 281.66Z" fill="#FFFFFF" fill-opacity="1.000000" fill-rule="nonzero"/>
	<path id="path" d="M274.65 291.29C280.11 294.06 284.78 292.34 285.31 287.33C285.58 284.3 284.91 282.72 282.65 281.14C278.65 278.37 276.78 278.5 273.58 281.66C269.85 285.35 270.25 289.18 274.65 291.29Z" stroke="#000000" stroke-opacity="1.000000" stroke-width="0.133333"/>
	<path id="path" d="M193.05 257.41C189.98 260.31 190.38 266.77 193.45 268.48C196.91 270.33 203.31 270.2 205.31 268.22C207.98 265.58 207.31 258.2 204.38 256.62C200.51 254.64 195.45 255.04 193.05 257.41Z" fill="#FFFFFF" fill-opacity="1.000000" fill-rule="nonzero"/>
	<path id="path" d="M193.45 268.48C196.91 270.33 203.31 270.2 205.31 268.22C207.98 265.58 207.31 258.2 204.38 256.62C200.51 254.64 195.45 255.04 193.05 257.41C189.98 260.31 190.38 266.77 193.45 268.48Z" stroke="#000000" stroke-opacity="1.000000" stroke-width="0.133333"/>
	<path id="path" d="M313.58 257.94C308.38 263.08 311.98 269.8 319.71 269.8C324.65 269.8 326.91 267.69 326.91 263.08C326.91 255.83 318.78 252.8 313.58 257.94Z" fill="#FFFFFF" fill-opacity="1.000000" fill-rule="nonzero"/>
	<path id="path" d="M319.71 269.8C324.65 269.8 326.91 267.69 326.91 263.08C326.91 255.83 318.78 252.8 313.58 257.94C308.38 263.08 311.98 269.8 319.71 269.8Z" stroke="#000000" stroke-opacity="1.000000" stroke-width="0.133333"/>
	<path id="path" d="M159.45 206.27C156.91 207.98 156.38 211.41 158.38 214.31C160.91 217.73 163.18 217.87 165.98 214.7C168.78 211.67 168.78 209.96 166.11 207.32C163.85 205.08 161.71 204.68 159.45 206.27Z" fill="#FFFFFF" fill-opacity="1.000000" fill-rule="nonzero"/>
	<path id="path" d="M158.38 214.31C160.91 217.73 163.18 217.87 165.98 214.7C168.78 211.67 168.78 209.96 166.11 207.32C163.85 205.08 161.71 204.68 159.45 206.27C156.91 207.98 156.38 211.41 158.38 214.31Z" stroke="#000000" stroke-opacity="1.000000" stroke-width="0.133333"/>
	<path id="path" d="M351.71 207.32C349.05 209.82 349.05 210.48 351.71 214.17C354.11 217.73 356.51 217.87 359.31 214.7C362.25 211.41 362.11 208.24 359.05 206.53C355.45 204.68 354.11 204.82 351.71 207.32Z" fill="#FFFFFF" fill-opacity="1.000000" fill-rule="nonzero"/>
	<path id="path" d="M351.71 214.17C354.11 217.73 356.51 217.87 359.31 214.7C362.25 211.41 362.11 208.24 359.05 206.53C355.45 204.68 354.11 204.82 351.71 207.32C349.05 209.82 349.05 210.48 351.71 214.17Z" stroke="#000000" stroke-opacity="1.000000" stroke-width="0.133333"/>
	<path id="path" d="M144.78 364.71C143.31 365.24 140.25 367.87 137.85 370.51C133.98 374.86 133.58 376.18 133.58 383.69C133.58 390.68 134.11 392.65 137.31 396.61C141.31 401.88 146.65 404.25 154.11 404.25C174.11 404.25 181.05 376.7 163.71 366.16C159.05 363.26 149.98 362.6 144.78 364.71Z" fill="#FFFFFF" fill-opacity="1.000000" fill-rule="nonzero"/>
	<path id="path" d="M137.85 370.51C133.98 374.86 133.58 376.18 133.58 383.69C133.58 390.68 134.11 392.65 137.31 396.61C141.31 401.88 146.65 404.25 154.11 404.25C174.11 404.25 181.05 376.7 163.71 366.16C159.05 363.26 149.98 362.6 144.78 364.71C143.31 365.24 140.25 367.87 137.85 370.51Z" stroke="#000000" stroke-opacity="1.000000" stroke-width="0.133333"/>
	<path id="path" d="M353.45 366.55C343.58 373.28 341.18 386.59 348.11 396.08C352.78 402.28 359.18 404.91 367.85 403.86C379.31 402.67 384.25 396.48 384.25 383.43C384.25 375.65 383.98 374.86 379.05 369.72C374.38 364.71 373.31 364.18 366.11 363.79C359.45 363.26 357.58 363.65 353.45 366.55Z" fill="#FFFFFF" fill-opacity="1.000000" fill-rule="nonzero"/>
	<path id="path" d="M348.11 396.08C352.78 402.28 359.18 404.91 367.85 403.86C379.31 402.67 384.25 396.48 384.25 383.43C384.25 375.65 383.98 374.86 379.05 369.72C374.38 364.71 373.31 364.18 366.11 363.79C359.45 363.26 357.58 363.65 353.45 366.55C343.58 373.28 341.18 386.59 348.11 396.08Z" stroke="#000000" stroke-opacity="1.000000" stroke-width="0.133333"/>
</svg>
